# xmcd
#
# Track frame offsets:
#	150
#	15936
#	30605
#	50842
#	69424
#	86413
#	101964
#	115688
#	136041
#
# Disc length: 1997 seconds
#
# Revision: 1
# Processed by: cddbd v1.5.1PL2 Copyright (c) Steve Scherf et al.
# Submitted via: audiograbber 1.83.01
#
DISCID=6b07cb09
DTITLE=KRISTINA - Ostrvo snova
DYEAR=2005
DGENRE=Pop
TTITLE0=Odlazim
TTITLE1=Sanjam, a budna sam
TTITLE2=Swing
TTITLE3=Bice bolje, zar ne
TTITLE4=Oprastam
TTITLE5=Stid ili smeh
TTITLE6=Moram da znam
TTITLE7=Zelim ti ljubav
TTITLE8=Swing reloaded
EXTD=
EXTT0=
EXTT1=
EXTT2=
EXTT3=
EXTT4=
EXTT5=
EXTT6=
EXTT7=
EXTT8=
PLAYORDER=
